<svg xmlns="http://www.w3.org/2000/svg" viewBox="0 0 970 546" role="img" aria-label="흰색 차량 전면과 중앙 번호판">
  <defs>
    <linearGradient id="paint" x1="0" x2="0" y1="0" y2="1">
      <stop offset="0" stop-color="#f9fcfb"/>
      <stop offset="0.45" stop-color="#edf3f2"/>
      <stop offset="1" stop-color="#dce4e2"/>
    </linearGradient>
    <linearGradient id="chrome" x1="0" x2="1" y1="0" y2="1">
      <stop offset="0" stop-color="#f6fbfa"/>
      <stop offset="0.22" stop-color="#7e8a88"/>
      <stop offset="0.5" stop-color="#f7fbfa"/>
      <stop offset="0.78" stop-color="#6d7775"/>
      <stop offset="1" stop-color="#eef4f3"/>
    </linearGradient>
    <linearGradient id="grille" x1="0" x2="0" y1="0" y2="1">
      <stop offset="0" stop-color="#1f2929"/>
      <stop offset="0.52" stop-color="#0d1415"/>
      <stop offset="1" stop-color="#050809"/>
    </linearGradient>
    <filter id="softShadow" x="-20%" y="-20%" width="140%" height="140%">
      <feDropShadow dx="0" dy="12" stdDeviation="16" flood-color="#0f172a" flood-opacity=".25"/>
    </filter>
    <pattern id="mesh" width="74" height="52" patternUnits="userSpaceOnUse" patternTransform="skewX(-7)">
      <path d="M-18 52 37 0 92 52M-18 0 37 52 92 0" fill="none" stroke="url(#chrome)" stroke-width="4" stroke-linecap="round"/>
      <circle cx="37" cy="26" r="4" fill="#ccd6d4"/>
    </pattern>
  </defs>

  <rect width="970" height="546" fill="#eef2f1"/>
  <rect y="456" width="970" height="90" fill="#7f3a10" opacity=".88"/>

  <path d="M0 63 C162 18 318 7 485 7 C650 7 810 18 970 62 L970 341 C876 372 786 388 692 394 C624 399 558 399 485 399 C412 399 346 399 278 394 C184 388 94 372 0 341 Z" fill="url(#paint)"/>
  <path d="M77 80 C24 108 1 143 0 197 L0 300 L88 277 C114 260 119 225 98 188 C82 158 70 121 77 80 Z" fill="#e9f0ef"/>
  <path d="M893 80 C946 108 969 143 970 197 L970 300 L882 277 C856 260 851 225 872 188 C888 158 900 121 893 80 Z" fill="#e9f0ef"/>

  <path d="M116 88 C75 92 35 109 0 137 L0 198 C34 181 86 170 151 169 C170 149 178 127 172 103 C155 93 136 88 116 88 Z" fill="#dfe7e6"/>
  <path d="M132 108 C89 110 50 121 18 139 C58 145 104 148 154 149 C164 135 165 122 158 114 C151 110 142 108 132 108 Z" fill="#1b2526"/>
  <path d="M854 88 C895 92 935 109 970 137 L970 198 C936 181 884 170 819 169 C800 149 792 127 798 103 C815 93 834 88 854 88 Z" fill="#dfe7e6"/>
  <path d="M838 108 C881 110 920 121 952 139 C912 145 866 148 816 149 C806 135 805 122 812 114 C819 110 828 108 838 108 Z" fill="#1b2526"/>

  <g filter="url(#softShadow)">
    <path d="M183 61 L787 61 C827 61 858 91 852 128 L812 330 C806 361 779 383 747 386 L223 386 C191 383 164 361 158 330 L118 128 C112 91 143 61 183 61 Z" fill="url(#chrome)"/>
    <path d="M198 82 L772 82 C801 82 823 103 819 130 L782 308 C777 334 756 351 729 354 L241 354 C214 351 193 334 188 308 L151 130 C147 103 169 82 198 82 Z" fill="url(#grille)"/>
    <path d="M198 82 L772 82 C801 82 823 103 819 130 L782 308 C777 334 756 351 729 354 L241 354 C214 351 193 334 188 308 L151 130 C147 103 169 82 198 82 Z" fill="url(#mesh)" opacity=".9"/>
  </g>

  <circle cx="485" cy="88" r="11" fill="#0b1112" stroke="#889391" stroke-width="4"/>
  <path d="M451 0 C462 18 473 30 485 37 C497 30 508 18 519 0 Z" fill="#cbd5d4"/>

  <rect x="272" y="236" width="426" height="94" rx="12" fill="#253033" opacity=".72"/>
  <rect x="287" y="223" width="396" height="88" rx="8" fill="#f6f7f2" stroke="#3b4342" stroke-width="5"/>
  <rect x="287" y="223" width="57" height="88" rx="8" fill="#4c8edb"/>
  <text x="315" y="266" text-anchor="middle" font-family="Arial, sans-serif" font-size="18" font-weight="700" fill="#dcecff">KOR</text>
  <text x="485" y="292" text-anchor="middle" font-family="Arial Black, Arial, sans-serif" font-size="55" letter-spacing="5" fill="#111827" opacity=".22">777모7777</text>

  <path d="M112 360 L268 385 L357 414 L249 453 L39 421 Z" fill="#141b1c" opacity=".92"/>
  <path d="M858 360 L702 385 L613 414 L721 453 L931 421 Z" fill="#141b1c" opacity=".92"/>
  <path d="M304 410 C365 423 425 430 485 430 C545 430 605 423 666 410 L701 452 C558 472 412 472 269 452 Z" fill="#101718" opacity=".96"/>
  <path d="M0 345 C142 393 298 414 485 414 C672 414 828 393 970 345 L970 394 C827 439 667 459 485 459 C303 459 143 439 0 394 Z" fill="#f5f8f7"/>
  <path d="M0 399 C157 456 324 481 485 481 C646 481 813 456 970 399 L970 446 C810 504 646 528 485 528 C324 528 160 504 0 446 Z" fill="#dfe7e6"/>
  <path d="M248 517 C406 538 564 538 722 517" fill="none" stroke="#a4afad" stroke-width="7" opacity=".45"/>
</svg>
